<svg xmlns="http://www.w3.org/2000/svg" id="anthropometry" viewBox="0 0 64 64">
  <path d="M37.24,18.51c0-2.19,1.77-3.96,3.96-3.96,2.18,0,3.95,1.77,3.95,3.96,0,2.18-1.77,3.95-3.95,3.95-2.19,0-3.96-1.77-3.96-3.95Z" style="stroke-width:0;fill:#dbc7ab"></path>
  <path d="M41.710022,22.4199829c-.1700439.0300293-.3400269.039978-.5100098.039978-2.1900024,0-3.960022-1.7699585-3.960022-3.9499512,0-2.1900024,1.7700195-3.960022,3.960022-3.960022.1699829,0,.3399658.0100098.5100098.039978-1.9500122.2399902-3.4500122,1.9000244-3.4500122,3.9200439,0,2.0099487,1.5,3.6699829,3.4500122,3.9099731Z" style="stroke-width:0;fill:#f2dcc2"></path>
  <path d="M48.710022,30.7799683v9.75l-1.8000488.5499878-.8599854.2600098h-.5299683v10.6000366c0,1.1900024-.9700317,2.1599731-2.1600342,2.1599731-.3200073,0-.6300049-.0700073-.8999634-.2000122-.2400513-.0999756-.4500122-.25-.6300049-.4299927-.3900146-.3900146-.6300049-.9299927-.6300049-1.5299683,0,.5999756-.2399902,1.1399536-.6400146,1.5299683-.3900146.3900146-.9299927.6300049-1.5299683.6300049-1.1900024,0-2.1600342-.9699707-2.1600342-2.1599731v-10.6000366h-.5299683l-1.4700317-.4499512h-.0100098l-1.1799927-.3600464v-9.75c0-2.9899902,2.2800293-5.4500122,5.1900024-5.75.0300293,0,.0599976-.0100098.0999756,0l.0100098-.0100098c.1600342-.0099487.3200073-.0199585.4800415-.0199585h3.4799805c3.1900024,0,5.7700195,2.5899658,5.7700195,5.7799683Z" style="stroke-width:0;fill:#dbc7ab"></path>
  <path d="M23 16v2h-3c-.55 0-1-.45-1-1s.45-1 1-1h3ZM23 31v2h-3c-.55 0-1-.45-1-1s.45-1 1-1h3Z" style="fill:#e8434c;stroke-width:0"></path>
  <path d="M23,48v6h-7v-7h3c0,.55.45,1,1,1h3Z" style="stroke-width:0;fill:#f9999a"></path>
  <path d="M23,23v2h-3c-.55,0-1-.45-1-1s.45-1,1-1h3Z" style="fill:#e8434c;stroke-width:0"></path>
  <path d="M23,41v5h-3c-.55,0-1,.45-1,1h-3v-7h3c0,.55.45,1,1,1h3Z" style="stroke-width:0;fill:#f9999a"></path>
  <path d="M23,46v2h-3c-.55,0-1-.45-1-1s.45-1,1-1h3Z" style="fill:#e8434c;stroke-width:0"></path>
  <path d="M23 8v8h-3c-.55 0-1 .45-1 1h-3v-9h7ZM23 33v6h-3c-.55 0-1 .45-1 1h-3v-8h3c0 .55.45 1 1 1h3ZM23 18v5h-3c-.55 0-1 .45-1 1h-3v-7h3c0 .55.45 1 1 1h3Z" style="stroke-width:0;fill:#f9999a"></path>
  <path d="M23,39v2h-3c-.55,0-1-.45-1-1s.45-1,1-1h3Z" style="fill:#e8434c;stroke-width:0"></path>
  <path d="M23,25v6h-3c-.55,0-1,.45-1,1h-3v-8h3c0,.55.45,1,1,1h3Z" style="stroke-width:0;fill:#f9999a"></path>
  <path d="m38.9799805 25.0199585-.0100098.0100098c-.2399902.1700439-4.0999756 2.8900146-4.0999756 4.9899902v10.8700562h-.0100098l-1.1799927-.3600464v-9.75c0-2.9899902 2.2800293-5.4500122 5.1900024-5.75l.1099854-.0100098ZM42.460022 41.1400146v12.7599487c-.2400513-.0999756-.4500122-.25-.6300049-.4299927-.3900146-.3900146-.6300049-.9299927-.6300049-1.5299683v-10.7999878c0-.3500366.2799683-.6300049.6300049-.6300049.3399658 0 .6300049.2799683.6300049.6300049ZM46.9099731 32.0100098v9.0699463l-.8599854.2600098h-.5299683v-9.3299561c0-.3800049.3099976-.6900024.6900024-.6900024.3899536 0 .6999512.3099976.6999512.6900024Z" style="stroke-width:0;fill:#f2dcc2"></path>
</svg>
