<svg xmlns="http://www.w3.org/2000/svg" width="64" height="64" viewBox="0 0 16.933 16.933" id="blood">
  <g color="#000" font-family="sans-serif" font-weight="400">
    <path fill="#ff6b6b" d="M8.463 280.596a.265.265 0 0 0-.184.077s-1.402 1.403-2.804 3.34c-1.403 1.936-2.829 4.404-2.829 6.636a5.826 5.826 0 0 0 5.82 5.822c3.212 0 5.821-2.61 5.821-5.822 0-2.232-1.425-4.7-2.828-6.636-1.403-1.937-2.805-3.34-2.805-3.34a.265.265 0 0 0-.191-.077z" overflow="visible" style="line-height:normal;font-variant-ligatures:normal;font-variant-position:normal;font-variant-caps:normal;font-variant-numeric:normal;font-variant-alternates:normal;font-feature-settings:normal;text-indent:0;text-align:start;text-decoration-line:none;text-decoration-style:solid;text-decoration-color:#000;text-transform:none;text-orientation:mixed;shape-padding:0;isolation:auto;mix-blend-mode:normal" transform="translate(0 -280.067)"></path>
    <path fill="#dbe9ee" d="M7.408 287.74v1.324H6.086a.265.265 0 0 0-.266.263v1.588c0 .146.12.264.266.264h1.322v1.324c0 .146.12.264.266.263H9.26a.265.265 0 0 0 .266-.263v-1.324h1.321a.265.265 0 0 0 .267-.264v-1.588a.265.265 0 0 0-.267-.263H9.526v-1.325a.265.265 0 0 0-.266-.263h-1.6a.266.266 0 0 0-.252.263z" overflow="visible" style="line-height:normal;font-variant-ligatures:normal;font-variant-position:normal;font-variant-caps:normal;font-variant-numeric:normal;font-variant-alternates:normal;font-feature-settings:normal;text-indent:0;text-align:start;text-decoration-line:none;text-decoration-style:solid;text-decoration-color:#000;text-transform:none;text-orientation:mixed;shape-padding:0;isolation:auto;mix-blend-mode:normal" transform="translate(0 -280.067)"></path>
  </g>
</svg>
