<svg xmlns="http://www.w3.org/2000/svg" id="bone-health" viewBox="0 0 128 128">
  <path d="M69,99a26.9,26.9,0,0,1-19.1-7.9h0A27,27,0,1,1,69,99ZM52.7,88.3A23,23,0,1,0,46,72a23,23,0,0,0,6.7,16.3Z" style="fill:#00aeef"></path>
  <path d="M75.7,83H72.5a3.2,3.2,0,0,1-3.2-3.2V76.6H66a3.2,3.2,0,0,1-3.2-3.2V70.1A3.2,3.2,0,0,1,66,66.9h3.3V63.7a3.2,3.2,0,0,1,3.2-3.2h3.2a3.2,3.2,0,0,1,3.2,3.2v3.2H82a3.2,3.2,0,0,1,3.2,3.2v3.2A3.2,3.2,0,0,1,82,76.6H78.9v3.2A3.2,3.2,0,0,1,75.7,83Z" style="fill:#ffce32"></path>
  <path d="M54.6,108.2a10.4,10.4,0,0,1-.2,5.1c-2.3,7.8-7.1,10.1-10.8,10.6s-8.4-1-10-2.3h0c-3-3.1-3.3-6.6-.8-11a2,2,0,1,0-3.5-1.9c-2.5,4.6-2.8,8.8-.9,12.5-3.6,1.3-11.3,2.9-17.7-4.3-3.4-3.8-3.5-9.8,0-14.5a23.4,23.4,0,0,1,5.7-5.4c.2-.1,4.9-3.1,5-10.2l.9-47c.2-1.3.6-6.2-5.1-10.9-2.1-1.7-7.3-7.7-5.4-14.1S18.8,4.6,22.4,4.1s8.4,1,10,2.3h0c3,3.1,3.3,6.6.8,11a2,2,0,0,0,.8,2.7l1,.3a2,2,0,0,0,1.8-1c2.5-4.6,2.8-8.8.9-12.5C41.2,5.6,49,4,55.4,11.2c3.4,3.8,3.5,9.8,0,14.5a23.4,23.4,0,0,1-5.7,5.4c-.2.1-4.9,3.1-5,10.2v.2a38.7,38.7,0,0,1,4.5-3.1,7.6,7.6,0,0,1,2.7-4A27.5,27.5,0,0,0,58.7,28c4.5-6.3,4.4-14.3-.3-19.5C49.8-1,39.1,2,35.2,3.6h-.1C32.4,1.2,27.1-.6,21.9.2s-11,3-14.1,13.4C5.4,21.8,11.1,29.2,14.5,32s3.7,6.9,3.7,7a2,2,0,0,0-.1.5l-.9,47.2c-.1,4.8-3,6.8-3.2,6.9A27.5,27.5,0,0,0,7.3,100c-4.5,6.3-4.4,14.3.3,19.5a18.9,18.9,0,0,0,14.5,6.6,23.6,23.6,0,0,0,8.7-1.7c2.3,2,6.5,3.6,10.9,3.6l2.4-.2c4-.5,11-3,14.1-13.4a14.2,14.2,0,0,0,.5-4.8Z" style="fill:#231f20"></path>
  <path d="M123.4,113.3,110,99.9a3.7,3.7,0,0,0-5-.1l-7.6-7.4a35,35,0,1,0-9.6,9.1l7.7,7.5a3.6,3.6,0,0,0,.1,5L109,127.4a2,2,0,1,0,2.8-2.8L98.7,111.4l1-1h0l6.6-6.4h0l1.1-1,13.1,13.2a2,2,0,1,0,2.8-2.8ZM47.1,93.9a31,31,0,1,1,43.8,0A31,31,0,0,1,47.1,93.9Zm46.7,2.8,1.1-1.2,7.2,7-3.7,3.6-7.3-7.1Z" style="fill:#231f20"></path>
  <path d="M79,66H75.1V62a4,4,0,0,0-4-4h-4a4,4,0,0,0-4,4v4H59a4,4,0,0,0-4,4v4a4,4,0,0,0,4,4h4.1v4a4,4,0,0,0,4,4h4a4,4,0,0,0,4-4V78H79a4,4,0,0,0,4-4V70A4,4,0,0,0,79,66Zm0,8H73.1a2,2,0,0,0-2,2v6h-4V76a2,2,0,0,0-2-2H59V70h6.1a2,2,0,0,0,2-2V62h4v6a2,2,0,0,0,2,2H79Z" style="fill:#231f20"></path>
</svg>
