<svg xmlns="http://www.w3.org/2000/svg" viewBox="0 0 512 512" id="endocrinology">
  <path fill="#ff695a" fill-rule="evenodd" d="m404.49,350.9c-4.219,4.633-10.229,7.294-16.498,7.294s-12.292-2.661-16.512-7.294c-2.598-2.858-2.401-7.279.462-9.887,2.858-2.603,7.289-2.401,9.887.457,1.583,1.732,3.82,2.723,6.163,2.723s4.58-.991,6.158-2.723c2.598-2.858,7.029-3.06,9.882-.457,2.858,2.608,3.07,7.029.457,9.887h0Zm-46.837-52.461c-2.603-2.858-2.391-7.275.457-9.887,2.863-2.603,7.289-2.401,9.892.462,1.578,1.728,3.82,2.718,6.158,2.718s4.58-.991,6.163-2.718c2.598-2.862,7.029-3.064,9.887-.462,2.853,2.612,3.06,7.029.462,9.887-4.229,4.633-10.243,7.294-16.512,7.294s-12.278-2.661-16.507-7.294h0Zm.986-114.617c2.863-2.603,7.294-2.401,9.892.457,1.578,1.732,3.82,2.723,6.158,2.723s4.58-.991,6.163-2.723c2.598-2.848,7.029-3.06,9.887-.457,2.853,2.608,3.06,7.029.462,9.892-4.229,4.638-10.243,7.289-16.512,7.289s-12.278-2.651-16.507-7.289c-2.603-2.853-2.401-7.284.457-9.892h0Zm35.401,61.458c-4.219,4.633-10.238,7.289-16.507,7.289s-12.283-2.656-16.502-7.289c-2.608-2.858-2.401-7.289.462-9.887,2.858-2.603,7.279-2.401,9.887.457,1.573,1.732,3.82,2.723,6.154,2.723s4.585-.991,6.158-2.723c2.613-2.858,7.029-3.06,9.892-.457,2.858,2.598,3.055,7.029.457,9.887h0Zm-52.49,81.67c-4.219,4.643-10.238,7.289-16.512,7.289s-12.278-2.646-16.507-7.289c-2.598-2.848-2.391-7.279.457-9.887,2.863-2.603,7.294-2.391,9.892.457,1.583,1.732,3.82,2.723,6.158,2.723s4.58-.991,6.163-2.723c2.603-2.848,7.029-3.06,9.892-.457,2.848,2.608,3.06,7.039.457,9.887h0Zm-138.081,0c-4.219,4.643-10.238,7.289-16.497,7.289s-12.293-2.646-16.512-7.289c-2.598-2.848-2.401-7.279.462-9.887,2.858-2.603,7.279-2.391,9.892.457,1.568,1.732,3.815,2.723,6.158,2.723,2.329,0,4.58-.991,6.149-2.723,2.608-2.848,7.029-3.06,9.892-.457,2.858,2.608,3.07,7.039.457,9.887h0Zm-49.117-28.511c-4.219,4.633-10.238,7.294-16.502,7.294s-12.288-2.661-16.507-7.294c-2.603-2.858-2.401-7.275.457-9.887,2.863-2.603,7.279-2.401,9.892.462,1.568,1.728,3.82,2.718,6.158,2.718s4.58-.991,6.153-2.718c2.608-2.862,7.029-3.064,9.887-.462,2.863,2.612,3.07,7.029.462,9.887h0Zm-13.832,52.461c-4.22,4.633-10.229,7.294-16.498,7.294s-12.283-2.661-16.512-7.294c-2.598-2.858-2.401-7.279.462-9.887,2.858-2.603,7.289-2.391,9.887.457,1.583,1.732,3.82,2.723,6.163,2.723s4.58-.991,6.158-2.723c2.598-2.848,7.029-3.06,9.882-.457,2.858,2.608,3.07,7.029.457,9.887h0Zm-22.088-115.507c2.848-2.603,7.279-2.401,9.882.457,1.578,1.732,3.815,2.723,6.158,2.723s4.58-.991,6.158-2.723c2.603-2.858,7.029-3.06,9.892-.457,2.858,2.598,3.06,7.029.457,9.887-4.219,4.633-10.238,7.289-16.507,7.289s-12.283-2.656-16.502-7.289c-2.608-2.858-2.396-7.289.462-9.887h0Zm2.838-51.571c2.858-2.603,7.294-2.391,9.892.457,1.568,1.732,3.82,2.723,6.158,2.723s4.58-.991,6.163-2.723c2.598-2.858,7.029-3.06,9.877-.457,2.858,2.608,3.07,7.039.462,9.892-4.219,4.638-10.233,7.289-16.502,7.289s-12.288-2.651-16.507-7.289c-2.603-2.863-2.401-7.284.457-9.892h0Zm314.069,112.658c-8.559-30.82-17.565-74.597-20.298-105.139-1.419-15.91-1.568-31.128-2.733-43.123-1.4-14.496-4.835-22.199-13.419-24.768-17.768-4.792-37.811,8.521-47.558,21.66-9.411,12.677-16.459,31.191-18.09,56.7-2.511,39.173-6.158,77.181-77.239,78.081-71.08-.9-74.732-38.908-77.239-78.081-1.636-25.509-8.684-44.022-18.095-56.7-9.748-13.139-29.786-26.452-47.559-21.66-8.578,2.569-12.018,10.272-13.418,24.768-1.16,11.994-1.314,27.212-2.733,43.123-2.728,30.541-11.739,74.318-20.298,105.139-10.051,36.171-16.801,78.033,30.849,91.879,31.273,9.103,69.801-6.865,96.002-24.229,17.089-11.321,34.409-21.91,52.49-21.799,18.081-.111,35.401,10.479,52.49,21.799,26.197,17.364,64.73,33.332,95.998,24.229,47.65-13.846,40.9-55.708,30.849-91.879Z"></path>
  <path fill="#2e3760" fill-rule="evenodd" d="m302.791,253.671v-9.05c0-2.762-1.352-5.138-3.729-6.548-2.391-1.41-5.124-1.453-7.553-.121-10.719,5.889-22.829,9.04-35.179,9.04s-24.46-3.151-35.179-9.04c-2.42-1.333-5.158-1.289-7.539.121-2.382,1.41-3.738,3.786-3.738,6.558v9.569c12.389,9.762,31.046,11.489,46.13,11.691,15.348-.202,34.41-1.987,46.789-12.22h0Zm-69.199,108.8c7.019,2.901,14.631,4.46,22.41,4.46s15.391-1.559,22.41-4.46c-7.414-3.58-15.112-6.139-22.41-6.139s-15.001,2.559-22.41,6.139h0ZM192.259,11c-2.237,0-3.58,1.222-4.176,1.939-.611.722-1.564,2.271-1.14,4.474,2.189,11.739,5.697,22.459,11.388,34.78,2.112,4.609,4.032,8.636,5.74,12.268,9.262,19.581,13.491,28.521,16.05,51.821.298,2.8,2.569,4.821,5.389,4.821h60.991c2.81,0,5.081-2.021,5.379-4.821,2.574-23.3,6.803-32.24,16.05-51.821,1.722-3.632,3.633-7.659,5.749-12.268,5.682-12.322,9.194-23.05,11.383-34.78.419-2.203-.529-3.753-1.131-4.474-.611-.717-1.953-1.939-4.191-1.939h-27.298c-2.843,0-5.163,2.131-5.403,4.951-2.708,31.47-15.179,52.61-31.037,52.61s-28.333-21.14-31.042-52.61c-.231-2.819-2.56-4.951-5.389-4.951h-27.313Zm94.241,124.523h-60.991c-.327,0-.659-.01-.991-.029v.029c-1.905,0-3.469,1.549-3.469,3.478v15.261c10.07,7.481,22.362,11.561,34.953,11.561s24.888-4.08,34.958-11.561v-15.261c0-1.929-1.568-3.478-3.478-3.478v-.029c-.332.019-.649.029-.982.029h0Zm-76.96,74.448c11.051,14.371,28.261,22.892,46.462,22.892s35.41-8.521,46.466-22.892v-32.1c0-2.766-1.357-5.148-3.738-6.557-2.377-1.41-5.119-1.453-7.549-.12-10.719,5.889-22.829,9.04-35.179,9.04s-24.46-3.151-35.17-9.031c-2.43-1.342-5.172-1.289-7.549.12-2.382,1.41-3.743,3.787-3.743,6.548v32.1h0Zm-.279,20.37l-.019-.029-.024.019.043.009h0Zm93.529-.038l-.029.029.029-.029h0Zm-93.558,201.117l-.015.01c.015.014.034.014.053.024l-.038-.033h0Zm.308,14.583v32.119c11.051,14.371,28.261,22.877,46.462,22.877s35.41-8.506,46.466-22.877v-32.119c0-2.771-1.357-5.153-3.738-6.558-2.391-1.414-5.119-1.453-7.549-.12-10.642,5.846-22.718,9.045-35.179,9.045s-24.532-3.19-35.17-9.04c-2.43-1.338-5.162-1.29-7.549.12-2.382,1.4-3.743,3.782-3.743,6.553h0Zm93.212-14.559c.019-.014.029-.024.038-.033v-.01l-.038.043h0Zm-93.212-52.471v32.11c11.051,14.371,28.261,22.887,46.462,22.887s35.41-8.516,46.466-22.887v-32.12c0-.784-.106-1.544-.318-2.252-.471-.298-.929-.601-1.39-.909-2.131-1.41-4.392-2.911-6.769-4.431-.962.121-1.91.419-2.81.919-10.642,5.85-22.718,9.05-35.179,9.05s-24.532-3.2-35.17-9.05c-.909-.5-1.862-.799-2.824-.919-2.377,1.521-4.648,3.022-6.77,4.431-.457.298-.909.597-1.366.9-.221.717-.332,1.477-.332,2.271Z"></path>
</svg>
