<svg xmlns="http://www.w3.org/2000/svg" viewBox="0 0 48 48" id="heart">
  <g>
    <path fill="#c4455e" d="M18,22c-6.28,5.24-6.78,8-8.91,7.65A2,2,0,0,1,7.42,28,33.73,33.73,0,0,1,7,23c0-3.41,2.19-6.85,5.36-7.77S25,16.13,18,22Z"></path>
    <path fill="#db5669" d="M18,22a65.85,65.85,0,0,0-6.73,6.67A2,2,0,0,1,9.42,27c-.71-4.62-.92-9,2.94-11.77C15.46,14.33,25,16.13,18,22Z"></path>
    <path fill="#db5669" d="M41,33c0,4.31-3.12,14-7,14-5.27,0-13.3-3-19-8.62-2.18-2.16-5.12-5.8-5.91-8.73C11.22,30,11.68,27.27,18,22c1.92-1.6,2.61-2.89,2.53-3.9,3.13.37,6.31,2,11.47,2.9C37.65,22,41,27.53,41,33Z"></path>
    <path fill="#f26674" d="M22.15 16.53c-.11-.25-.2-.21.07-.17C22.19 16.42 22.17 16.48 22.15 16.53zM41 33c0 3.79-2.19 12-6 12-9 0-20.45-7.37-24.32-15.79.32-.16 2.25-2.35 2.93-3.08 4-4.22 7.1-5.72 6.92-8 3 .36 5.5 1.73 10.67 2.76a10.83 10.83 0 0 1 4 1.27C39.07 24.33 41 29 41 33z"></path>
    <path fill="#6fabe6" d="M15 38.38V44H11V33.54A31.07 31.07 0 0 0 15 38.38zM15 1V15a6.42 6.42 0 0 0-4 .77V1z"></path>
    <path fill="#db5669" d="M35.5,10c-6.63,0-10.82,3.41-12.22,8.69a17.51,17.51,0,0,0-2.75-.59,2.16,2.16,0,0,0-.8-1.49C21.91,10.25,27.45,6,35.5,6,33.53,6,33.51,10,35.5,10Z"></path>
    <path fill="#f26674" d="M35.5,10C25.9,10,24.21,16.69,24,16.8h0a1.46,1.46,0,0,1-.84-2.14,15.27,15.27,0,0,1,11-7.43C33.71,8.46,34.39,10,35.5,10Z"></path>
    <path fill="#db5669" d="M37,8c0,2.69-3,2.61-3,0a2,2,0,0,1,1.19-2h0C36,5.79,37,6.56,37,8Z"></path>
    <path fill="#f26674" d="M37,8c0,.19-.1,1-.2,1-.75.25-1.8-.52-1.8-2,0-.22.1-1,.2-1C36,5.79,37,6.56,37,8Z"></path>
    <path fill="#c4455e" d="M24.08,10a16,16,0,0,0-4.35,6.63A8.65,8.65,0,0,0,15,15V11.27A10.92,10.92,0,0,1,24.08,10Z"></path>
    <path fill="#db5669" d="M24.08,10a15.56,15.56,0,0,0-3.62,4.86,3.66,3.66,0,0,0-.46-.18c-2.86-1.06-3.27-4.46-2.89-4.46A11.23,11.23,0,0,1,24.08,10Z"></path>
    <path fill="#c4455e" d="M35.2,22.13A9.73,9.73,0,0,0,32,21a69.35,69.35,0,0,1-8.72-2.31,11.39,11.39,0,0,1,5.1-7C33.89,14.49,35.38,17.24,35.2,22.13Z"></path>
    <path fill="#db5669" d="M35.15,20.27c-1.22-.36-1.9-.31-4.59-1a4.29,4.29,0,0,1-1.82-7.33C32.67,14.08,34.75,15.77,35.15,20.27Z"></path>
    <path fill="#c4455e" d="M35.82 33.73a5.77 5.77 0 0 1-3.32.05 7 7 0 0 1-1.08 4.47 1 1 0 0 1-1.72-1c1.64-2.74.64-4.85-.9-7.84-.95.86-2.25 2.35-1.59 3.66a1 1 0 0 1-1.79.89C24 31.11 26.68 28.5 28 27.47c-.57-2.39.7-5.74 1.27-7 2.16.52 2.05.32 1.9.63C30 23.71 29.5 26.31 30 27.4A43.45 43.45 0 0 1 32 31.48a4.72 4.72 0 0 0 3.24.36A1 1 0 0 1 35.82 33.73zM18.66 27.92a7.69 7.69 0 0 1 .86 2.54 1 1 0 0 1-1 1.16c-1.71 0-.11-2.55-3.65-4.75-.9-.51-1.12-.56-1.27-.74.42-.44.88-.92 1.42-1.46a9.74 9.74 0 0 1 2.41 1.67A3.83 3.83 0 0 0 18.89 25C19.76 23.62 22.68 25.51 18.66 27.92z"></path>
    <path fill="#82bcf4" d="M15 1c0 12.64-.1 12 0 12a2 2 0 0 1-2-2V1zM15 38.38V42a2 2 0 0 1-2-2V36.2C13.62 37 14.3 37.68 15 38.38z"></path>
    <path d="M36.21,21.57c0-2.4-.55-6.18-3.63-8.39-.72-.51-1.41-1-2.08-1.38a12.42,12.42,0,0,1,5-.8c3.32,0,3.32-6,0-6A17.42,17.42,0,0,0,23.8,8.9a11.93,11.93,0,0,0-7.8.69V1a1,1,0,0,0-2,0V14a6.91,6.91,0,0,0-2,.3V1a1,1,0,0,0-2,0V15.23A9.58,9.58,0,0,0,6,23a34.9,34.9,0,0,0,.43,5.15A3,3,0,0,0,8.3,30.47c2,5.9,1.7-1.83,1.7,13.53a1,1,0,0,0,2,0V36.56c.62.76,1.3,1.51,2,2.23V44a1,1,0,0,0,2,0V40.67C21.37,45.29,28.89,48,34,48c4.54,0,8-10,8-15C42,28.69,40,24,36.21,21.57Zm-2-1a10.92,10.92,0,0,0-2-.55,53.44,53.44,0,0,1-7.63-2,10.18,10.18,0,0,1,3.87-5.13C32,14.9,33.86,16.28,34.17,20.56ZM21.36,17.22a3.16,3.16,0,0,0-.48-.84A14.54,14.54,0,0,1,33.12,7.11a3.49,3.49,0,0,0,.06,2c-5.45.74-9,3.88-10.57,8.37C22.19,17.38,21.78,17.3,21.36,17.22ZM36,8c0,.62-.32,1-.5,1S35,8.62,35,8s.32-1,.5-1S36,7.38,36,8ZM16,11.84a9.5,9.5,0,0,1,6.05-1.22,17.23,17.23,0,0,0-2.8,4.48A10.85,10.85,0,0,0,16,14.15ZM14,16c2.64,0,5.1.86,5.48,1.92.27.75-.5,2-2.12,3.31-4.29,3.58-5.57,5.64-7.28,7.18a1,1,0,0,1-1.67-.56A32.36,32.36,0,0,1,8,23C8,19.69,10.46,16,14,16ZM34,46c-8.79,0-20.08-7.47-23.55-15.51,1.15-.43,2-1.69,4-3.84,4,2.2,2.23,5,4,5a1,1,0,0,0,1-1.16,7.69,7.69,0,0,0-.86-2.54c4-2.42,1.09-4.3.23-2.89a3.83,3.83,0,0,1-1.45,1.31,8.63,8.63,0,0,0-1.5-1.16c2.59-2.5,4.74-3.72,5.44-5.93,2.22.44,4.4,1.35,7.47,2.11-.6,1.6-1.35,4.17-.89,6.11-1.28,1-4,3.64-2.54,6.47a1,1,0,0,0,1.79-.89c-.66-1.31.64-2.8,1.59-3.66,1.52,3,2.54,5.09.9,7.84a1,1,0,0,0,1.72,1,7,7,0,0,0,1.08-4.47,5.77,5.77,0,0,0,3.32-.05,1,1,0,0,0-.63-1.89A4.72,4.72,0,0,1,32,31.48,39.9,39.9,0,0,0,30,27.4c-.49-1-.16-3.22.78-5.6l1,.19c5.3.88,8.16,6.33,8.16,11C40,37.94,36.65,46,34,46Z"></path>
  </g>
</svg>
