<svg xmlns="http://www.w3.org/2000/svg" id="hormone-therapy" viewBox="0 0 128 128">
  <path d="M27 81H19a2 2 0 0 1 0-4h8a2 2 0 0 1 0 4ZM27 63H19a2 2 0 0 1 0-4h8a2 2 0 0 1 0 4ZM27 45H19a2 2 0 0 1 0-4h8a2 2 0 0 1 0 4Z" style="fill:#00aeef"></path>
  <path d="M82.9,39.6,80.5,29a1.1,1.1,0,0,0-.7-.8L69.1,24.9a1.1,1.1,0,0,0-1,.2l-8.2,7.3a1.1,1.1,0,0,0-.3,1L62,44.1a1.1,1.1,0,0,0,.7.8l5.1,1.6,5.6,1.7a1.1,1.1,0,0,0,1-.2l8.2-7.3A1.1,1.1,0,0,0,82.9,39.6Z" style="fill:#ffce32"></path>
  <path d="M105.2,45.4l-8.1-2.5-5-21.7,7.8-6.6a2,2,0,1,0-2.6-3.1L89.6,18,66.3,10.8a2,2,0,0,0-1.9.4L49.7,24.3a6,6,0,0,1,2.2,3.4L66.2,14.9l21.9,6.8h.1l5,21.8L76.3,58.8,64.8,55.3,54.3,52,50.1,33.4A6,6,0,0,1,47,35v2.9l3.5,15.2L47,57.9v6.8l6.4-8.8,15.2,4.7,6.2,1.9.3,21.9L53.9,91.3h-.1l-6.8-9v4.4a8.3,8.3,0,0,1-.2,1.9l4.3,5.7-1.2,13.9a2,2,0,0,0,1.8,2.2h.2a2,2,0,0,0,2-1.8L55,95.1l21.3-6.9L82.4,94a2,2,0,0,0,2.8-2.9l-6.1-5.8L78.8,62,95.9,46.6l8.1,2.5h.6a2,2,0,0,0,.6-3.9Z" style="fill:#231f20"></path>
  <path d="M48,29.1a2,2,0,0,0-2-2H38V4h1.1a2,2,0,0,0,0-4H20.9a2,2,0,0,0,0,4H22V27H14a2,2,0,0,0,0,4h3V86.7A4.3,4.3,0,0,0,21.3,91H22v4a2,2,0,0,0,2,2h1v4a2,2,0,0,0,2,2h1.1a2,2,0,0,0-.1.5V126a2,2,0,0,0,4,0V103.5a2,2,0,0,0-.1-.5H33a2,2,0,0,0,2-2V97h1a2,2,0,0,0,2-2V91h.7A4.3,4.3,0,0,0,43,86.7V31.1h3A2,2,0,0,0,48,29.1ZM26,4h2v9a2,2,0,0,0,4,0V4h2V27H26Zm5,95H29V97h2Zm3-6H26V91h8Zm5-6.3a.3.3,0,0,1-.3.3H21.3a.3.3,0,0,1-.3-.3V72h2a2,2,0,0,0,0-4H21V54h2a2,2,0,0,0,0-4H21V31.1H39Z" style="fill:#231f20"></path>
  <path d="M87.5 103.6a6.8 6.8 0 0 1-6.1-3.7 6.7 6.7 0 0 1-.4-5.1h0a6.8 6.8 0 0 1 8.5-4.4 6.8 6.8 0 0 1 4 3.4 6.7 6.7 0 0 1 .4 5.1A6.8 6.8 0 0 1 87.5 103.6ZM84.8 96a2.7 2.7 0 0 0 .2 2.1 2.8 2.8 0 0 0 1.7 1.4 2.8 2.8 0 0 0 3.5-1.8 2.7 2.7 0 0 0-.2-2.1 2.8 2.8 0 0 0-1.7-1.4A2.8 2.8 0 0 0 84.8 96ZM103.6 17.5a6.8 6.8 0 0 1-2-.3 6.8 6.8 0 0 1-4-3.4 6.7 6.7 0 0 1-.4-5.1h0a6.8 6.8 0 0 1 8.5-4.4 6.8 6.8 0 0 1 4 3.4 6.7 6.7 0 0 1 .4 5.1A6.8 6.8 0 0 1 103.6 17.5Zm-2.7-7.6a2.7 2.7 0 0 0 .2 2.1 2.8 2.8 0 0 0 1.7 1.4 2.8 2.8 0 0 0 3.5-1.8 2.7 2.7 0 0 0-.2-2.1 2.8 2.8 0 0 0-1.7-1.4 2.8 2.8 0 0 0-3.5 1.8ZM109.2 55.5a6.8 6.8 0 0 1-2-.3 6.8 6.8 0 0 1-4-3.3 6.7 6.7 0 0 1-.4-5.1h0a6.8 6.8 0 0 1 8.5-4.4 6.8 6.8 0 0 1 4 3.4 6.7 6.7 0 0 1 .4 5.1A6.8 6.8 0 0 1 109.2 55.5Zm-2.7-7.6a2.7 2.7 0 0 0 .2 2.1 2.8 2.8 0 0 0 1.7 1.4 2.8 2.8 0 0 0 3.5-1.8 2.7 2.7 0 0 0-.2-2.1 2.8 2.8 0 0 0-1.7-1.4 2.8 2.8 0 0 0-3.5 1.8ZM51.9 120a6.8 6.8 0 0 1-6.1-3.6 6.7 6.7 0 0 1 2.9-9.1 6.9 6.9 0 0 1 9.2 2.9 6.7 6.7 0 0 1 .5 5.1 6.7 6.7 0 0 1-3.4 4A6.8 6.8 0 0 1 51.9 120Zm0-9.5a2.9 2.9 0 0 0-1.3.3 2.8 2.8 0 0 0-1.4 1.6 2.7 2.7 0 0 0 .2 2.1 2.9 2.9 0 0 0 3.8 1.2 2.8 2.8 0 0 0 1.4-1.6 2.7 2.7 0 0 0-.2-2.1A2.8 2.8 0 0 0 51.9 110.5Z" style="fill:#00aeef"></path>
</svg>
