<svg xmlns="http://www.w3.org/2000/svg" enable-background="new 0 0 68 68" viewBox="0 0 68 68" id="joint">
  <path fill="#387bfe" d="M40.1 43.9c-1-.1-1.9-.5-2.5-1.3-.7-.8-1.7-2.1-1.9-3.5-.3-1.8-2-3.9-4.8-4.5-.9-.2-1.7-.6-2.4-1.2-2.3-2.1-3.3-4-3-5.7 0-.1 0-.2 0-.3-.7-3.2-3.5-2.9-5-.8-1.8 2.5-2.8 4.9-3.3 7.5-1.1 6-3.6 10.9-7 14.5l-4.9 5.2c-.3.3-.3.8 0 1l11 10.8c.1.1.3.2.5.2.2 0 .4-.1.5-.2 6.7-6.1 13.4-10.4 19.7-12.7 0 0 .1 0 .1-.1 2.6-1.5 4.5-3 5.8-4.7.5-.6.7-1.5.5-2.3C42.8 44.4 41.6 44 40.1 43.9zM41.6 47.2c-1.2 1.5-3 2.9-5.3 4.3-6.4 2.4-12.8 6.5-19.6 12.5l-9.9-9.8 4.4-4.6c3.7-3.9 6.3-8.9 7.4-15.2.4-2.3 1.4-4.6 3-6.9.8-1.1 1.9-1.6 2.3.1-.3 2.2.8 4.4 3.5 6.9.9.8 1.9 1.3 3.1 1.6 2.2.5 3.4 2.1 3.6 3.3.2 1.5 1 2.9 2.3 4.3.9 1.1 2.2 1.7 3.5 1.8.8.1 1.7.2 1.9.9C41.9 46.6 41.8 47 41.6 47.2zM62.5 10.8l-8.1-8c-.7-.7-1.8-.7-2.5 0l-8.4 8.4c-1.9 1.9-4.2 2.9-6.7 3-2.6.1-5 1.2-6.8 3.2-3.1 3.5-3.1 8.9 0 12.4.9 1.1 2.1 1.9 3.4 2.4 1.9.8 3.3 2.4 4 4.2 1.7 5.3 8.3 6.9 12.3 3.4 0 0 0 0 0 0 1.6-1.4 2.5-3.4 2.6-5.6.1-5.2 1.6-6.8 2.4-8.8 1.8-4.4 4.4-8.4 7.9-12.2C63.2 12.5 63.2 11.5 62.5 10.8zM61.5 12.2c-3.6 4-6.2 8.1-8.2 12.6-.8 1.9-2.4 3.8-2.5 9.4 0 1.7-.8 3.3-2.1 4.5-3.3 2.9-8.6 1.5-9.9-2.7-.7-2.3-2.5-4.1-4.8-5.1-1.1-.5-2-1.1-2.8-2-2.6-3-2.6-7.5 0-10.4 1.5-1.7 3.5-2.6 5.7-2.7 2.8-.1 5.6-1.3 7.7-3.4l8.4-8.4c0 0 .1-.1.2-.1.1 0 .1 0 .2.1l8.1 8C61.6 12 61.6 12.1 61.5 12.2z"></path>
  <path fill="#8dd1fe" d="M61.5,12.2c-3.6,4-6.2,8.1-8.2,12.6c-0.8,1.9-2.4,3.8-2.5,9.4c0,1.7-0.8,3.3-2.1,4.5
				c-3.3,2.9-8.6,1.5-9.9-2.7c-0.7-2.3-2.5-4.1-4.8-5.1c-1.1-0.5-2-1.1-2.8-2c-2.6-3-2.6-7.5,0-10.4c1.5-1.7,3.5-2.6,5.7-2.7
				c2.8-0.1,5.6-1.3,7.7-3.4l8.4-8.4c0,0,0.1-0.1,0.2-0.1c0.1,0,0.1,0,0.2,0.1l8.1,8C61.6,12,61.6,12.1,61.5,12.2z"></path>
</svg>
