<svg xmlns="http://www.w3.org/2000/svg" width="64" height="64" id="kidney">
  <path fill="#FFE0B2" d="M42.5 23.5v4h-4a4 4 0 0 0-4 4V59h-2V30.5a7 7 0 0 1 7-7h3z"></path>
  <path fill="#37474F" d="M35 59h-1V31.5c0-2.481 2.019-4.5 4.5-4.5H42v-3h-2.5a6.508 6.508 0 0 0-6.5 6.5V59h-1V30.5c0-4.136 3.364-7.5 7.5-7.5H43v5h-4.5c-1.93 0-3.5 1.57-3.5 3.5V59z"></path>
  <path fill="#FF8A80" d="M34.5 14.5a8 8 0 0 1 8-8c5.417 0 15 5.5 15 22.5 0 10.031-6.667 16-12 16a8.5 8.5 0 0 1-8.5-8.5 8.471 8.471 0 0 1 2.88-6.365 8.455 8.455 0 0 1-.546-8.288A8.002 8.002 0 0 1 34.5 14.5z"></path>
  <path fill="#FF5252" d="M44.998 6.848C50.143 8.948 56 15.209 56 28.5c0 10.031-6.667 16-12 16a8.547 8.547 0 0 1-1.939-.23A8.484 8.484 0 0 0 45.5 45c5.333 0 12-5.969 12-16 0-14.607-7.074-20.72-12.502-22.152z"></path>
  <path fill="#FFF" d="M38.5 37a8.471 8.471 0 0 1 2.88-6.365 8.455 8.455 0 0 1-.546-8.288A8 8 0 0 1 44 7a9.87 9.87 0 0 1 2.498.348C45.063 6.762 43.682 6.5 42.5 6.5a8 8 0 0 0-3.166 15.347 8.447 8.447 0 0 0 .546 8.288A8.471 8.471 0 0 0 37 36.5c0 4.026 2.803 7.391 6.561 8.27C40.582 43.448 38.5 40.469 38.5 37z"></path>
  <path fill="#37474F" d="M45.5 45.5c-4.962 0-9-4.037-9-9 0-2.43.993-4.758 2.738-6.452A8.962 8.962 0 0 1 38 25.5c0-1.174.228-2.318.678-3.408A8.497 8.497 0 0 1 34 14.5C34 9.813 37.813 6 42.5 6 48.73 6 58 12.125 58 29c0 10.766-7.259 16.5-12.5 16.5zM42.5 7c-4.136 0-7.5 3.364-7.5 7.5a7.5 7.5 0 0 0 4.532 6.888l.477.206-.224.469A7.914 7.914 0 0 0 39 25.5c0 1.55.449 3.059 1.299 4.361l.236.362-.324.286a8.002 8.002 0 0 0-2.711 5.99c0 4.411 3.589 8 8 8C50.321 44.5 57 39.113 57 29c0-16.027-8.894-22-14.5-22z"></path>
  <path fill="#FFE0B2" d="M20.5 23.5v4h4a4 4 0 0 1 4 4V59h2V30.5a7 7 0 0 0-7-7h-3z"></path>
  <path fill="#37474F" d="M31 59h-1V30.5c0-3.584-2.916-6.5-6.5-6.5H21v3h3.5c2.481 0 4.5 2.019 4.5 4.5V59h-1V31.5c0-1.93-1.57-3.5-3.5-3.5H20v-5h3.5c4.136 0 7.5 3.364 7.5 7.5V59z"></path>
  <path fill="#FF8A80" d="M28.5 14.5a8 8 0 0 0-8-8c-5.417 0-15 5.5-15 22.5 0 10.031 6.667 16 12 16a8.5 8.5 0 0 0 8.5-8.5 8.471 8.471 0 0 0-2.88-6.365 8.455 8.455 0 0 0 .546-8.288A8.002 8.002 0 0 0 28.5 14.5z"></path>
  <path fill="#FF5252" d="M28.5 14.5c0-3.811-2.667-6.992-6.233-7.798a7.996 7.996 0 0 1-.101 14.645 8.447 8.447 0 0 1-.546 8.288A8.473 8.473 0 0 1 24.5 36a8.5 8.5 0 0 1-8.5 8.5 7.991 7.991 0 0 1-1.852-.237c1.128.477 2.268.737 3.352.737a8.5 8.5 0 0 0 8.5-8.5 8.471 8.471 0 0 0-2.88-6.365 8.455 8.455 0 0 0 .546-8.288A8.002 8.002 0 0 0 28.5 14.5z"></path>
  <path fill="#FFF" d="M7 29.5C7 12.5 16.583 7 22 7c.608 0 1.198.074 1.767.202A7.97 7.97 0 0 0 20.5 6.5c-5.417 0-15 5.5-15 22.5 0 8.896 5.242 14.587 10.148 15.763C11.231 42.892 7 37.491 7 29.5z"></path>
  <path fill="#37474F" d="M17.5 45.5C12.259 45.5 5 39.766 5 29 5 12.125 14.27 6 20.5 6c4.687 0 8.5 3.813 8.5 8.5a8.497 8.497 0 0 1-4.678 7.592c.45 1.09.678 2.234.678 3.408a8.962 8.962 0 0 1-1.238 4.548A9.001 9.001 0 0 1 26.5 36.5c0 4.963-4.038 9-9 9zm3-38.5C14.894 7 6 12.973 6 29c0 10.113 6.679 15.5 11.5 15.5 4.411 0 8-3.589 8-8a8.002 8.002 0 0 0-2.711-5.99l-.324-.286.236-.362A7.967 7.967 0 0 0 24 25.5c0-1.19-.264-2.347-.785-3.438l-.224-.469.477-.206A7.498 7.498 0 0 0 28 14.5c0-4.136-3.364-7.5-7.5-7.5z"></path>
</svg>
