<svg xmlns="http://www.w3.org/2000/svg" width="512" height="512" fill-rule="evenodd" clip-rule="evenodd" image-rendering="optimizeQuality" shape-rendering="geometricPrecision" text-rendering="geometricPrecision" viewBox="0 0 512 512" id="liver">
  <path fill="#4d4d4d" d="M257 306l-32 0 0 33c0,9 -15,9 -15,-1l0 -32 -31 0c-10,0 -10,-15 0,-15l31 0 0 -31c0,-10 15,-10 15,0l0 31 32 0c10,0 10,15 0,15zm-205 80c-39,0 -44,-59 -45,-70 -16,-105 -4,-183 37,-229 38,-44 87,-44 89,-44 25,1 52,4 84,9 5,1 7,5 6,9 -6,20 -11,40 -15,61 -6,35 -7,67 -3,97 8,-1 17,-2 25,0 -4,-28 -3,-59 2,-92 4,-21 10,-43 17,-64 1,-4 4,-6 8,-5 49,7 105,16 163,8 1,0 1,0 2,0 53,6 82,19 89,42 7,26 -20,51 -24,55 -52,69 -139,79 -174,81 -10,0 -20,3 -29,8 25,36 18,85 -17,112l13 20c4,-3 11,-8 15,-1l38 60c2,4 1,8 -2,10l-22 15c-4,2 -9,1 -11,-3l-38 -60c-4,-6 3,-10 8,-13l-13 -20c-43,21 -97,2 -114,-45 -19,12 -30,24 -30,24 -23,23 -42,35 -59,35zm100 -102c-13,57 51,103 101,71 31,-19 40,-61 21,-92 -31,-49 -107,-37 -122,21zm39 -61c-7,-49 0,-108 16,-158 -28,-4 -52,-6 -74,-7 -1,0 -44,0 -78,39 -38,43 -49,116 -34,217 1,13 6,49 24,56 13,5 32,-5 55,-29 1,0 15,-15 37,-29 -6,-39 17,-77 54,-89zm84 18c12,-8 24,-11 38,-12 33,-1 115,-11 163,-75 5,-5 27,-24 21,-42 -4,-15 -31,-26 -75,-31 -58,7 -112,-1 -161,-8 -15,48 -24,103 -15,149 11,4 21,11 29,19zm-205 -85c-23,0 -23,-34 0,-34 22,0 22,34 0,34zm0 -19c-3,0 -4,5 0,5 3,0 3,-5 0,-5zm32 -23c-22,0 -23,-34 0,-34 23,0 23,34 0,34zm0 -19c-3,0 -3,5 0,5 3,0 4,-5 0,-5zm55 18c-9,0 -17,-8 -17,-17 0,-9 8,-17 17,-17 10,0 18,8 18,17 0,9 -8,17 -18,17zm0 -20c-3,0 -3,5 0,5 4,0 4,-5 0,-5zm8 138c-23,0 -23,-34 0,-34 22,0 22,34 0,34zm0 -20c-2,0 -3,1 -3,3 0,3 5,4 5,0 0,-1 -1,-3 -2,-3zm-92 109c-10,0 -17,-8 -17,-17 0,-9 8,-17 17,-17 22,0 23,34 0,34zm0 -19c-3,0 -3,5 0,5 3,0 3,-5 0,-5zm2 -40c-10,0 -17,-8 -17,-17 0,-9 8,-17 17,-17 22,0 22,34 0,34zm0 -19c-3,0 -3,5 0,5 3,0 3,-5 0,-5zm40 36c-9,0 -17,-8 -17,-17 0,-10 8,-18 17,-18 9,0 17,8 17,18 0,9 -8,17 -17,17zm0 -20c-3,0 -3,5 0,5 4,0 3,-5 0,-5zm15 -98c-22,0 -22,-34 0,-34 23,0 23,34 0,34zm0 -19c-3,0 -3,5 0,5 3,0 4,-5 0,-5zm-79 74c-9,0 -17,-8 -17,-17 0,-10 8,-17 17,-17 9,0 17,7 17,17 0,9 -7,17 -17,17zm0 -20c-3,0 -3,5 0,5 3,0 4,-5 0,-5zm67 23c-23,0 -22,-35 0,-35 23,0 22,35 0,35zm0 -20c-3,0 -3,5 0,5 3,0 3,-5 0,-5zm51 -10c-9,0 -17,-8 -17,-17 0,-9 8,-17 17,-17 9,0 17,8 17,17 0,9 -8,17 -17,17zm0 -20c-3,0 -3,5 0,5 3,0 3,-5 0,-5zm105 -53c-22,0 -22,-34 0,-34 23,0 23,34 0,34zm0 -19c-3,0 -3,5 0,5 3,0 3,-5 0,-5zm74 27c-23,0 -23,-35 0,-35 9,0 17,8 17,17 -1,10 -8,18 -17,18zm0 -20c-4,0 -4,5 0,5 3,0 2,-5 0,-5zm78 16c-22,0 -23,-34 0,-34 23,0 23,34 0,34zm0 -19c-3,0 -3,5 0,5 4,0 3,-5 0,-5zm16 70c-9,0 -17,-8 -17,-17 0,-9 8,-17 17,-17 23,0 23,34 0,34zm0 -19c-3,0 -3,5 0,5 3,0 3,-5 0,-5zm-65 62c-9,0 -17,-7 -17,-17 0,-9 8,-17 17,-17 23,0 23,34 0,34zm0 -20c-3,0 -3,5 0,5 3,0 3,-5 0,-5zm11 -32c-9,0 -17,-8 -17,-17 0,-23 34,-23 34,0 0,9 -7,17 -17,17zm0 -20c-3,0 -4,5 0,5 3,0 3,-5 0,-5zm-96 80c-10,0 -17,-8 -17,-17 0,-9 7,-17 17,-17 22,0 22,34 0,34zm0 -20c-4,0 -4,5 0,5 3,0 3,-5 0,-5zm-22 -22c-9,0 -17,-8 -17,-17 0,-9 8,-17 17,-17 23,0 23,34 0,34zm0 -19c-3,0 -3,5 0,5 4,0 4,-5 0,-5zm65 15c-10,0 -17,-8 -17,-17 0,-9 8,-17 17,-17 10,0 17,8 17,17 0,9 -8,17 -17,17zm0 -19c-3,0 -3,5 0,5 3,0 3,-5 0,-5zm-58 248l30 47 10 -7 -30 -47 -10 7z"></path>
  <path fill="#f1f1f1" d="M225 291l32 0c10,0 10,15 0,15l-32 0 0 33c0,9 -15,9 -15,-1l0 -32 -31 0c-10,0 -10,-15 0,-15l31 0 0 -31c0,-10 15,-10 15,0l0 31zm-73 -7c-13,57 51,103 101,71 31,-19 40,-61 21,-92 -31,-49 -107,-37 -122,21z"></path>
  <polygon fill="#1d81ce" points="287 397 277 404 307 451 317 444"></polygon>
  <path fill="#ff700d" d="M318 158c0,-9 8,-17 17,-17 10,0 17,8 17,17 0,9 -8,17 -17,17 -10,0 -17,-8 -17,-17zm-43 83c12,-8 24,-11 38,-12 33,-1 115,-11 163,-75 5,-5 27,-24 21,-42 -4,-15 -31,-26 -75,-31 -58,7 -112,-1 -161,-8 -15,48 -24,103 -15,149 11,4 21,11 29,19zm-1 -160c23,0 23,34 0,34 -22,0 -22,-34 0,-34zm74 42c-23,0 -23,-35 0,-35 9,0 17,8 17,17 -1,10 -8,18 -17,18zm23 21c0,-23 34,-23 34,0 0,9 -7,17 -17,17 -9,0 -17,-8 -17,-17zm54 9c0,-9 8,-17 17,-17 23,0 23,34 0,34 -9,0 -17,-8 -17,-17zm-133 34c22,0 22,34 0,34 -10,0 -17,-8 -17,-17 0,-9 7,-17 17,-17zm-22 -42c23,0 23,34 0,34 -9,0 -17,-8 -17,-17 0,-9 8,-17 17,-17zm156 -26c-22,0 -23,-34 0,-34 23,0 23,34 0,34zm-49 94c-9,0 -17,-7 -17,-17 0,-9 8,-17 17,-17 23,0 23,34 0,34z"></path>
  <path fill="#ff700d" d="M335 156c-3 0-3 5 0 5 3 0 3-5 0-5zM292 206c3 0 3-5 0-5-4 0-4 5 0 5zM270 165c4 0 4-5 0-5-3 0-3 5 0 5zM388 141c-3 0-4 5 0 5 3 0 3-5 0-5zM377 193c-3 0-3 5 0 5 3 0 3-5 0-5zM442 151c-3 0-3 5 0 5 3 0 3-5 0-5zM426 105c4 0 3-5 0-5-3 0-3 5 0 5zM348 108c3 0 2-5 0-5-4 0-4 5 0 5zM274 101c3 0 3-5 0-5-3 0-3 5 0 5zM140 96c0-9 8-17 17-17 10 0 18 8 18 17 0 9-8 17-18 17-9 0-17-8-17-17zm51 127c-7-49 0-108 16-158-28-4-52-6-74-7-1 0-44 0-78 39-38 43-49 116-34 217 1 13 6 49 24 56 13 5 32-5 55-29 1 0 15-15 37-29-6-39 17-77 54-89zm-89-143c23 0 23 34 0 34-22 0-23-34 0-34zm-32 42c22 0 22 34 0 34-23 0-23-34 0-34zm60 4c23 0 23 34 0 34-22 0-22-34 0-34zm22 45c0-9 8-17 17-17 9 0 17 8 17 17 0 9-8 17-17 17-9 0-17-8-17-17zm13 60c-23 0-23-34 0-34 22 0 22 34 0 34zm-90-4c22 0 22 34 0 34-10 0-17-8-17-17 0-9 8-17 17-17zm-19 76c0-9 8-17 17-17 22 0 23 34 0 34-10 0-17-8-17-17zm62-120c23 0 22 35 0 35-23 0-22-35 0-35zm-20 78c0-10 8-18 17-18 9 0 17 8 17 18 0 9-8 17-17 17-9 0-17-8-17-17zm-47-80c9 0 17 7 17 17 0 9-7 17-17 17-9 0-17-8-17-17 0-10 8-17 17-17z"></path>
  <path fill="#ff700d" d="M102 100c3 0 4-5 0-5-3 0-3 5 0 5zM157 93c-3 0-3 5 0 5 4 0 4-5 0-5zM130 146c3 0 4-5 0-5-3 0-3 5 0 5zM169 168c-3 0-3 5 0 5 3 0 3-5 0-5zM167 214c0-1-1-3-2-3-2 0-3 1-3 3 0 3 5 4 5 0zM118 203c3 0 3-5 0-5-3 0-3 5 0 5zM70 142c3 0 3-5 0-5-3 0-4 5 0 5zM75 247c3 0 3-5 0-5-3 0-3 5 0 5zM51 200c3 0 4-5 0-5-3 0-3 5 0 5zM115 258c-3 0-3 5 0 5 4 0 3-5 0-5zM73 306c3 0 3-5 0-5-3 0-3 5 0 5z"></path>
</svg>
