<svg xmlns="http://www.w3.org/2000/svg" viewBox="0 0 64 64" id="pancreas">
  <g>
    <path fill="#c2313c" d="M49 45a14.628 14.628 0 0 1-3 5c-2 2-6 3-6 3a14.628 14.628 0 0 1 3-5c2-2 6-3 6-3zM30 15.17a9 9 0 0 1-.17 1.8A10.226 10.226 0 0 1 25 24s-1-7 5-10z"></path>
    <path fill="#f77172" d="M18 21s-1 4-4 4a7.5 7.5 0 0 0-3 6c0 4 1 8 6 8 3.46 0 6.44-2.39 7.95-3.87A4.028 4.028 0 0 1 27.77 34a4.133 4.133 0 0 1 2.26.68l.94.64a4.186 4.186 0 0 0 2.11.68h5.99a5.973 5.973 0 0 1 4.73 2.32L49 45s-4 1-6 3a14.628 14.628 0 0 0-3 5l-4.07-5.7a2.005 2.005 0 0 0-2.38-.69C30.79 47.73 24.76 50 21 50a31.94 31.94 0 0 1-14-3c-4-2-6-8-6-14a59.354 59.354 0 0 1 1.26-10.63 7.98 7.98 0 0 1 3.52-5.16L15.19 12a7.98 7.98 0 0 1 3.88-1h1.48a7.939 7.939 0 0 1 2.81.51L30 14c-6 3-5 10-5 10Z"></path>
    <path fill="#fcd67e" d="M63 18v2s0 3-4 3c0 0-1 3-5 3 0 0-1 2-5 2 0 0 0 2-4 2a8.76 8.76 0 0 1-6 2s0 2-4 2a1.965 1.965 0 0 1-1.92 2 4.186 4.186 0 0 1-2.11-.68l-.94-.64a4.133 4.133 0 0 0-2.26-.68 4.028 4.028 0 0 0-2.82 1.13C23.44 36.61 20.46 39 17 39c-5 0-6-4-6-8a7.5 7.5 0 0 1 3-6c3 0 4-4 4-4l7 3a10.226 10.226 0 0 0 4.83-7.03L30 17s5 0 5 2c0 0 1-3 4-3a4.333 4.333 0 0 1 4 2s2-2 4-2 4 2 4 2 2-2 4-2a4.38 4.38 0 0 1 3 1 10.073 10.073 0 0 1 3-1 2.015 2.015 0 0 1 2 2Z"></path>
    <path fill="#e85f60" d="M24.95 35.13C23.44 36.61 20.46 39 17 39c-5 0-6-4-6-8a7.5 7.5 0 0 1 3-6c3 0 4-4 4-4l7 3s-1-7 5-10l-1.964-.736a7.626 7.626 0 0 0-4.42 4.025 1.981 1.981 0 0 1-2.523.948l-1.765-.706a2 2 0 0 0-2.2.492C16.016 19.208 14.008 21 12 21c-3 0-6 4-5 15s14 6 14 6 6.3-1.812 6.937-7.987L27.928 34a4.037 4.037 0 0 0-2.978 1.13zM49 45l-1.454-1.868a16.47 16.47 0 0 0-5.231 2.746A1.989 1.989 0 0 1 39.7 45.7l-.746-.746a2.9 2.9 0 0 0-4.9 1.536 2.009 2.009 0 0 1 1.884.814L40 53a14.628 14.628 0 0 1 3-5c2-2 6-3 6-3z"></path>
    <path fill="#ffb3b3" d="M37.523 37.06a1.257 1.257 0 0 0-.657.147 1.4 1.4 0 0 0-.365.4 2.528 2.528 0 0 0-.494 1.165 1.926 1.926 0 0 0 .986 1.772 4.449 4.449 0 0 0 1.891.434 3.92 3.92 0 0 1 1.877.492c.484.317.852.829 1.318 1.182a1.2 1.2 0 0 0 1.554.1 1.445 1.445 0 0 0 .367-.975 3.88 3.88 0 0 0-.986-2.4 6.376 6.376 0 0 0-2.42-2.1 7.081 7.081 0 0 0-3.071-.217zM19.766 12.054a7.959 7.959 0 0 0-2.06.214 3.569 3.569 0 0 0-1.769 1.032.753.753 0 0 0-.226.785.809.809 0 0 0 .55.347c.576.159 1.169.243 1.755.36a18.532 18.532 0 0 0 1.99.36 3.564 3.564 0 0 0 1.97-.323 1.45 1.45 0 0 0 .479-.382 1.6 1.6 0 0 0 .269-.948 1.623 1.623 0 0 0-.146-.789 1.242 1.242 0 0 0-1.05-.581 19.558 19.558 0 0 0-1.762-.075zm-4.344 2.183a1.661 1.661 0 0 0-1.267-.2 2.6 2.6 0 0 0-1.241.474c-.311.284-.567.8-.306 1.15a1.171 1.171 0 0 0 1.057.326 2.473 2.473 0 0 0 1.047-.449 1.5 1.5 0 0 0 .788-1.061.332.332 0 0 0-.078-.24z"></path>
    <path fill="#f5b55d" d="M58 22c-2 4-5 2-5 2-1 3-5 3-5 3-1 2-4 1-4 1-2 2-6 1-6 1s-1 4-5 4-2-1-7-1a22.405 22.405 0 0 0-6.734 1.281A3.227 3.227 0 1 1 18.227 27L24 26c4.792-.871 6.736-4.78 7.406-8.913C30.613 17 30 17 30 17l-.17-.03A10.226 10.226 0 0 1 25 24l-7-3s-1 4-4 4a7.5 7.5 0 0 0-3 6c0 4 1 8 6 8 3.46 0 6.44-2.39 7.95-3.87A4.028 4.028 0 0 1 27.77 34a4.133 4.133 0 0 1 2.26.68l.94.64a4.186 4.186 0 0 0 2.11.68A1.965 1.965 0 0 0 35 34c4 0 4-2 4-2a8.76 8.76 0 0 0 6-2c4 0 4-2 4-2 4 0 5-2 5-2 4 0 5-3 5-3 4 0 4-3 4-3-1 2-5 2-5 2Z"></path>
    <circle cx="39.5" cy="19" r="2" fill="#ffe4a6"></circle>
    <circle cx="47" cy="19" r="2" fill="#ffe4a6"></circle>
    <circle cx="42" cy="22" r="2" fill="#ffe4a6"></circle>
    <circle cx="46" cy="23" r="2" fill="#ffe4a6"></circle>
    <circle cx="51" cy="20" r="2" fill="#ffe4a6"></circle>
    <circle cx="50" cy="24" r="2" fill="#ffe4a6"></circle>
    <circle cx="54" cy="23" r="2" fill="#ffe4a6"></circle>
    <circle cx="55" cy="19" r="2" fill="#ffe4a6"></circle>
    <circle cx="60" cy="19" r="2" fill="#ffe4a6"></circle>
    <circle cx="42" cy="26" r="2" fill="#ffe4a6"></circle>
    <circle cx="38" cy="27" r="2" fill="#ffe4a6"></circle>
    <circle cx="34" cy="25" r="2" fill="#ffe4a6"></circle>
    <circle cx="30" cy="26" r="2" fill="#ffe4a6"></circle>
    <circle cx="34" cy="30" r="2" fill="#ffe4a6"></circle>
    <circle cx="29" cy="30" r="2" fill="#ffe4a6"></circle>
    <circle cx="25" cy="28" r="2" fill="#ffe4a6"></circle>
    <circle cx="21" cy="30" r="2" fill="#ffe4a6"></circle>
    <circle cx="38" cy="23" r="2" fill="#ffe4a6"></circle>
    <circle cx="33" cy="21" r="2" fill="#ffe4a6"></circle>
  </g>
</svg>
