<svg xmlns="http://www.w3.org/2000/svg" viewBox="0 0 63 63" id="vitamins">
  <path fill="#ffd880" d="M51.54 23.56v32.77c0 2.85-2.32 5.17-5.17 5.17H16.64c-2.86 0-5.18-2.32-5.18-5.17V23.56c0-2.85 2.32-5.17 5.18-5.17v-6.46h29.71v6.46h.02c2.85 0 5.17 2.32 5.17 5.17z"></path>
  <path fill="#fecb4d" d="M51.54 23.56v32.77c0 2.85-2.32 5.17-5.17 5.17H16.64c-2.52 0-4.62-1.8-5.08-4.18.32.07.66.1 1 .1 19.27 0 34.9-15.63 34.9-34.9v-3.04c0-.34-.03-.67-.1-.99 2.38.46 4.18 2.56 4.18 5.07z"></path>
  <path fill="#e3ecff" d="M11.46 27.56h40.08v24.22H11.46z"></path>
  <path fill="none" stroke="#2a3c65" stroke-linecap="round" stroke-linejoin="round" stroke-miterlimit="10" stroke-width="2" d="M15.46 27.56h32.08M47.54 51.78H15.46M51.54 23.56v32.77c0 2.85-2.32 5.17-5.17 5.17H16.64c-2.86 0-5.18-2.32-5.18-5.17V23.56c0-2.85 2.32-5.17 5.18-5.17v-6.46h29.71v6.46h.02c2.85 0 5.17 2.32 5.17 5.17z"></path>
  <path fill="#cc87fe" d="M48.25 4.5v6.97h-33.5V4.5c0-1.66 1.34-3 3-3h27.5c1.66 0 3 1.34 3 3z"></path>
  <path fill="none" stroke="#2a3c65" stroke-linecap="round" stroke-linejoin="round" stroke-miterlimit="10" stroke-width="2" d="M48.25 4.5v6.97h-33.5V4.5c0-1.66 1.34-3 3-3h27.5c1.66 0 3 1.34 3 3z"></path>
  <path fill="#c7d9f9" stroke="#2a3c65" stroke-linecap="round" stroke-linejoin="round" stroke-miterlimit="10" stroke-width="2" d="M48.65 14.16h-34.3a2.3 2.3 0 0 1-2.3-2.3h0a2.3 2.3 0 0 1 2.3-2.3h34.3a2.3 2.3 0 0 1 2.3 2.3h0a2.3 2.3 0 0 1-2.3 2.3z"></path>
  <path fill="#1de9b6" d="M36.3 39.63c0 4.59-4.8 8.31-4.8 8.31s-4.8-3.72-4.8-8.31 4.8-8.31 4.8-8.31 4.8 3.72 4.8 8.31z"></path>
  <path fill="#12d69e" d="M31.5 43.72c-.93-1.15-1.81-2.64-1.81-4.09s.87-2.94 1.81-4.09c.93 1.15 1.8 2.64 1.8 4.09s-.87 2.94-1.8 4.09z"></path>
  <path fill="none" stroke="#2a3c65" stroke-linecap="round" stroke-linejoin="round" stroke-miterlimit="10" stroke-width="2" d="M36.3 39.63c0 4.59-4.8 8.31-4.8 8.31s-4.8-3.72-4.8-8.31 4.8-8.31 4.8-8.31 4.8 3.72 4.8 8.31z"></path>
  <path fill="#38fcc4" d="M40.78 45.46c-3.25 3.25-9.28 2.48-9.28 2.48s-.77-6.03 2.48-9.28 9.28-2.48 9.28-2.48.76 6.04-2.48 9.28z"></path>
  <path fill="#1de9b6" d="M34.49 44.95c.16-1.47.59-3.13 1.61-4.16 1.07-1.07 2.81-1.46 4.17-1.61-.16 1.47-.59 3.13-1.61 4.16-1.07 1.07-2.82 1.47-4.17 1.61z"></path>
  <path fill="#38fcc4" d="M29.02 38.67c3.25 3.25 2.48 9.28 2.48 9.28s-6.03.77-9.28-2.48-2.48-9.28-2.48-9.28 6.03-.77 9.28 2.48z"></path>
  <path fill="#1de9b6" d="M28.51 44.95c-1.35-.14-3.1-.54-4.17-1.61-1.03-1.03-1.46-2.69-1.62-4.16 1.35.14 3.1.54 4.17 1.61 1.03 1.02 1.47 2.69 1.62 4.16z"></path>
  <path fill="none" stroke="#2a3c65" stroke-linecap="round" stroke-linejoin="round" stroke-miterlimit="10" stroke-width="2" d="M40.78 45.46c-3.25 3.25-9.28 2.48-9.28 2.48s-.77-6.03 2.48-9.28 9.28-2.48 9.28-2.48.76 6.04-2.48 9.28z"></path>
  <path fill="none" stroke="#2a3c65" stroke-linecap="round" stroke-linejoin="round" stroke-miterlimit="10" stroke-width="2" d="M29.02 38.67c3.25 3.25 2.48 9.28 2.48 9.28s-6.03.77-9.28-2.48-2.48-9.28-2.48-9.28 6.03-.77 9.28 2.48z"></path>
</svg>
